<?xml version="1.0" encoding="UTF-8" ?>
<!DOCTYPE svg PUBLIC "-//W3C//DTD SVG 1.1//EN" "http://www.w3.org/Graphics/SVG/1.1/DTD/svg11.dtd">
<svg width="212pt" height="158pt" viewBox="0 0 212 158" version="1.1" xmlns="http://www.w3.org/2000/svg">
<path fill="#ffffff" d=" M 0.00 0.00 L 212.00 0.00 L 212.00 158.00 L 0.00 158.00 L 0.00 0.00 Z" />
<path fill="#6d1010" d=" M 108.20 19.44 C 111.61 16.03 115.97 13.20 120.99 13.35 C 129.17 12.72 136.87 19.16 138.39 27.07 C 139.03 31.60 138.33 36.56 135.47 40.27 C 133.83 42.49 131.61 44.19 129.52 45.96 C 132.53 52.27 135.40 58.65 138.08 65.11 C 123.40 71.79 108.71 78.44 93.91 84.85 C 91.02 78.41 88.09 71.99 85.22 65.54 C 79.10 67.34 71.89 66.51 67.29 61.76 C 59.82 55.33 60.41 42.21 68.13 36.21 C 71.10 33.92 74.77 32.85 78.39 32.10 C 78.87 25.03 82.82 17.89 89.94 15.72 C 96.20 12.66 103.03 15.65 108.20 19.44 Z" />
<path fill="#ffffff" d=" M 108.98 26.34 C 112.46 21.78 117.32 18.05 123.29 17.89 C 118.83 20.05 114.59 22.77 111.56 26.78 C 110.91 26.67 109.63 26.45 108.98 26.34 Z" />
<path fill="#ffffff" d=" M 86.89 23.89 C 89.63 20.60 94.15 19.99 98.09 19.12 C 94.83 21.11 90.80 22.24 88.51 25.49 C 86.05 29.00 86.85 33.49 85.71 37.43 C 85.06 37.50 83.78 37.64 83.14 37.71 C 83.52 32.98 83.55 27.64 86.89 23.89 Z" />
<path fill="#ffffff" d=" M 67.67 45.50 C 69.80 40.34 75.40 36.66 81.06 37.72 C 75.53 38.95 69.86 42.84 69.67 49.03 C 68.93 54.39 73.05 58.36 76.69 61.59 C 73.03 59.77 69.17 57.49 67.67 53.45 C 67.26 50.83 67.27 48.12 67.67 45.50 Z" />
<path fill="#ffffff" d=" M 89.08 59.07 C 91.91 61.10 92.76 64.59 94.27 67.55 C 95.77 71.12 98.11 74.64 97.59 78.70 C 95.46 75.91 94.14 72.64 92.66 69.49 C 91.16 66.14 89.41 62.79 89.08 59.07 Z" />
<path fill="#6d1010" d=" M 139.48 74.47 C 141.63 74.06 143.48 75.41 145.31 76.28 C 143.17 76.45 141.02 76.43 138.89 76.67 C 137.66 78.02 135.88 79.86 136.89 81.83 C 137.83 84.93 141.16 85.91 143.65 87.44 C 146.86 89.05 148.84 92.15 150.93 94.93 C 152.80 93.13 155.94 91.30 155.17 88.27 C 154.83 85.92 152.47 86.48 150.75 86.28 C 151.84 85.24 152.95 84.22 154.07 83.20 C 155.85 84.91 158.61 86.37 158.67 89.13 C 158.81 91.21 158.92 93.38 158.28 95.39 C 156.70 98.20 153.56 99.36 151.14 101.25 C 149.31 103.45 148.55 106.43 146.33 108.34 C 141.38 112.67 134.47 114.38 128.01 113.55 C 129.89 112.64 131.81 111.85 133.79 111.18 C 133.68 110.73 133.46 109.84 133.35 109.39 C 127.49 107.96 122.75 112.84 116.97 112.47 C 113.53 112.56 110.01 110.78 108.39 107.68 C 107.01 105.64 107.58 103.08 107.60 100.79 C 109.37 100.52 111.14 100.29 112.92 100.07 C 111.97 101.45 111.01 102.83 110.07 104.21 C 111.59 105.46 112.81 107.65 115.05 107.53 C 118.69 107.70 121.63 105.12 124.67 103.49 C 124.75 100.65 124.75 97.81 125.00 94.98 C 126.87 100.00 129.41 105.85 135.00 107.54 C 141.98 109.27 149.75 102.01 146.95 94.92 C 145.56 89.61 139.96 87.94 136.27 84.69 C 132.75 81.50 135.10 75.32 139.48 74.47 Z" />
<path fill="#6d1010" d=" M 140.86 78.10 C 141.61 78.48 143.11 79.23 143.86 79.61 C 143.68 80.54 143.47 81.46 143.23 82.38 C 142.10 83.33 140.55 82.65 139.25 82.68 C 139.78 81.15 140.32 79.62 140.86 78.10 Z" />
<path fill="#6d1010" d=" M 111.80 83.72 C 114.11 80.37 118.90 80.97 121.84 83.09 C 118.97 84.00 114.97 83.31 113.12 86.17 C 112.18 87.43 111.32 88.74 110.41 90.01 C 110.55 87.86 110.10 85.39 111.80 83.72 Z" />
<path fill="#6d1010" d=" M 115.53 87.13 C 116.93 87.63 118.33 88.14 119.75 88.63 C 119.62 89.55 119.50 90.46 119.37 91.38 C 118.09 91.41 116.81 91.43 115.53 91.44 C 115.52 90.00 115.51 88.57 115.53 87.13 Z" />
<path fill="#6d1010" d=" M 27.75 128.75 C 34.20 129.30 41.55 126.97 47.28 130.84 C 47.91 132.88 47.90 135.13 47.30 137.17 C 44.34 139.50 40.38 139.19 36.85 139.63 C 40.14 140.90 43.37 142.32 46.63 143.67 C 46.55 144.28 46.40 145.48 46.32 146.08 C 40.94 144.40 35.85 141.92 30.77 139.50 C 30.69 141.52 30.64 143.54 30.59 145.57 C 29.86 145.54 28.42 145.49 27.70 145.47 C 27.65 139.90 27.59 134.32 27.75 128.75 Z" />
<path fill="#6d1010" d=" M 128.79 128.23 C 135.40 131.13 139.79 137.18 145.52 141.37 C 145.66 137.13 145.61 132.89 145.67 128.66 C 146.36 128.69 147.76 128.75 148.46 128.77 C 148.46 134.57 148.71 140.38 148.24 146.17 C 141.79 143.01 137.12 137.30 131.58 132.88 C 131.38 137.12 131.45 141.35 131.42 145.59 C 130.72 145.59 129.31 145.58 128.60 145.58 C 128.61 139.80 128.39 134.01 128.79 128.23 Z" />
<path fill="#ffffff" d=" M 30.67 131.36 C 35.30 131.37 39.93 131.26 44.56 131.56 C 44.60 133.18 44.61 134.81 44.59 136.44 C 39.95 136.67 35.31 136.58 30.67 136.59 C 30.67 134.85 30.67 133.11 30.67 131.36 Z" />
<path fill="#6d1010" d=" M 57.79 132.71 C 61.16 132.25 64.44 132.99 67.34 134.73 C 67.39 138.37 67.97 142.28 65.74 145.46 C 61.03 145.58 56.26 146.01 51.57 145.32 C 47.92 144.10 47.42 138.27 51.38 137.13 C 55.73 135.78 60.51 137.22 64.96 136.04 C 62.50 135.02 58.48 136.09 57.79 132.71 Z" />
<path fill="#6d1010" d=" M 69.73 134.42 C 74.89 131.66 81.11 132.22 86.54 133.86 C 87.25 137.73 87.38 141.69 86.84 145.60 C 86.23 145.60 84.99 145.61 84.38 145.61 C 84.35 142.21 84.34 138.80 84.31 135.40 C 80.39 135.25 76.47 135.26 72.55 135.35 C 72.51 138.76 72.51 142.17 72.48 145.58 C 71.55 145.56 70.61 145.54 69.68 145.52 C 69.63 141.82 69.62 138.12 69.73 134.42 Z" />
<path fill="#6d1010" d=" M 89.50 134.47 C 94.82 131.89 101.22 131.88 106.50 134.56 C 106.69 138.89 106.67 143.23 106.54 147.57 C 103.44 149.13 99.29 151.01 96.42 147.94 C 99.10 147.28 101.81 146.74 104.48 146.01 C 99.50 145.26 94.25 146.42 89.56 144.16 C 89.35 140.93 89.36 137.70 89.50 134.47 Z" />
<path fill="#6d1010" d=" M 109.41 134.21 C 113.81 132.37 118.92 131.96 123.50 133.20 C 126.16 133.80 126.34 136.79 126.30 139.02 C 126.18 140.72 126.68 142.84 125.10 144.02 C 123.37 146.14 120.42 145.51 118.02 145.69 C 114.85 145.63 110.63 146.18 108.93 142.76 C 108.32 139.92 108.88 137.01 109.41 134.21 Z" />
<path fill="#6d1010" d=" M 150.83 135.09 C 155.36 131.05 162.24 132.44 167.57 133.95 C 167.31 137.73 169.70 143.61 164.98 145.36 C 160.17 145.77 154.76 146.55 150.61 143.46 C 150.62 140.67 150.40 137.86 150.83 135.09 Z" />
<path fill="#6d1010" d=" M 168.67 133.97 C 168.98 133.45 169.59 132.42 169.90 131.90 C 171.91 134.59 173.40 137.61 174.78 140.66 C 175.13 140.66 175.84 140.64 176.19 140.63 C 177.57 137.62 179.17 134.72 181.03 131.98 C 183.59 134.36 184.84 137.64 186.51 140.60 C 186.81 140.60 187.40 140.60 187.69 140.61 C 189.50 137.55 190.71 134.09 193.40 131.65 C 193.56 133.17 194.07 134.80 193.17 136.20 C 191.62 139.42 190.11 142.69 188.04 145.62 C 187.58 145.59 186.65 145.52 186.19 145.49 C 184.24 142.88 182.97 139.84 181.32 137.04 C 179.62 139.97 178.22 143.10 176.15 145.79 C 175.68 145.69 174.75 145.49 174.29 145.38 C 172.00 141.82 170.12 137.95 168.67 133.97 Z" />
<path fill="#ffffff" d=" M 92.30 135.38 C 96.08 135.24 99.86 135.24 103.64 135.49 C 103.80 138.09 103.84 140.69 103.86 143.29 C 100.00 143.32 96.12 143.45 92.31 142.81 C 92.23 140.33 92.23 137.86 92.30 135.38 Z" />
<path fill="#ffffff" d=" M 111.67 135.49 C 115.56 135.22 119.47 135.21 123.36 135.48 C 123.41 137.83 123.43 140.18 123.44 142.53 C 119.77 143.32 115.81 143.88 112.18 142.67 C 111.04 140.51 111.80 137.86 111.67 135.49 Z" />
<path fill="#ffffff" d=" M 153.53 135.49 C 157.28 135.22 161.03 135.22 164.78 135.42 C 165.13 137.76 165.31 140.12 165.42 142.48 C 161.52 143.54 157.43 143.55 153.49 142.73 C 153.46 140.31 153.47 137.90 153.53 135.49 Z" />
<path fill="#ffffff" d=" M 51.74 139.35 C 56.04 139.17 60.35 139.21 64.65 139.24 C 64.59 140.44 64.52 141.65 64.46 142.85 C 60.19 143.54 55.80 143.52 51.55 142.70 C 51.59 141.86 51.69 140.19 51.74 139.35 Z" />
</svg>
